<?xml version="1.0" standalone="no"?><!DOCTYPE svg PUBLIC "-//W3C//DTD SVG 1.1//EN" "http://www.w3.org/Graphics/SVG/1.1/DTD/svg11.dtd"><svg t="1687846202540" class="icon" viewBox="0 0 1024 1024" version="1.1" xmlns="http://www.w3.org/2000/svg" p-id="3814" xmlns:xlink="http://www.w3.org/1999/xlink" width="200" height="200"><path d="M162.7 513.4h697.9c-0.5 4.8-0.1 9.1-1.5 12.6-4.5 11.3-1 16 11.1 15.3 30.4-1.7 51.9 13.4 70.2 36.2 18.5 23.1 17.6 50.1 13.5 75.5-4.3 26.3-15.4 51.9-37.3 69.8-20.8 17-45.5 24.2-72 20.8-20.6-2.6-40.8-8.5-61.3-12.1-4.4-0.8-11.2 0.8-14.1 3.8-25.3 27.1-53.2 50.8-86.1 68.4-9.3 5-14.7 20.5-8.8 31 2.6 4.6 12.4 7 19 7 80.2 0.3 160.3-0.1 240.5-0.2 1.8 0 3.7 0.5 6.2 0.9v26.9c-5.1 0.2-10.1 0.6-15.1 0.7-40.3 0.2-80.7 0-121 0.9-5.8 0.1-12.5 4.6-16.8 9-5.7 5.9-10.5 13.3-14 20.8-8.3 18.2-21.3 23-41.4 22.8-148.6-1-297.2-0.7-445.8-0.3-10.2 0-16.6-3.3-21.6-11.4-5.3-8.7-11.1-17.1-15.9-26.1-6.2-11.6-14.7-16.4-28.3-16.1-38.4 0.8-76.9 0.2-115.4 0.2H90c-0.4-9.7-0.8-17.6-1.3-28.3h31.4c69.2 0.2 138.5 0.6 207.7 0.3 6.6 0 18.2-3.7 18.7-7 1.6-10.6 5.8-23.3-8.6-30.8-36.9-19.2-68.6-45.7-94.7-77.4-25-30.6-46.3-64.2-59.6-102.3-12.2-35.6-22.1-71.3-20.9-110.9z m31.8 30c0 5.1-1.1 10.1 0.2 14.5 9 31.6 17.8 63.2 33.7 92.4C257.6 703.8 297.2 747 351 776c20.4 11 28.1 26.7 25.1 48.3-2 14.2 4.2 16.4 16.7 16.4 78.8-0.5 157.6-0.2 236.4-0.3 4.6 0 9.2-0.4 15.2-0.7 0-10.7 0.2-20.6 0-30.4-0.3-12.8 6.7-20.7 16.5-27.7 26.4-19 55.2-35.9 78-58.6 48.9-48.8 78.1-108.7 87.6-179.5-210.6-0.1-420.5-0.1-632-0.1z m652.9 173.4c10.4-1.8 19.2-2.7 27.7-5 27-7.6 39-28.9 47.3-53.2 14.5-42.7-5.9-86.7-52.8-88.4-10-0.4-16.8 1.9-19.7 12.9-10.5 40.2-25.7 78.5-50.3 112.5-4.7 6.5-1.1 10.9 5.3 12.4 14.4 3.4 29 6 42.5 8.8zM277.5 872.1c4.3 13.1 9.5 22.1 24.9 22.1 141.8-0.3 283.7-0.2 425.5-0.3 14.5 0 21-5.8 23.9-21.8H277.5zM287.5 110.4c49.3 11.9 96.6 20.9 136.8 51.5 40 30.5 57.1 78.6 40.3 125.4-3.8 10.6-10.6 20.6-17.9 29.4-7.3 8.8-11.9 17.4-10.4 29.1 3.4 25.3-7.8 47.9-14.9 71-3 9.8-12.6 14-21.3 9.3-4.3-2.3-7.2-12.1-6.3-17.9 1.8-11.7 8-22.7 9.8-34.4 2.6-16.7 7.2-34.9 3.1-50.4-6.7-25.5-19.4-49.4-30.1-73.7-2.9-6.6-9.1-12-10.9-18.7-2.1-8.2-4.5-17.8 6.2-23.7 10.7-5.9 19.5-1.2 24.3 6.8 11.6 19.3 21.3 39.7 31.8 59.7 0.8 1.5 1.5 3.1 2.2 4.6 1.6 0.1 3.3 0.1 4.9 0.2 1-13.3 3.9-26.7 2.5-39.8-2.4-22.5-15.6-38.5-34.3-51.4-21.8-15-45-25.9-67.6-32.9-2.5 29.7-5.4 58.6-7.2 87.6-1.2 19.1 14.8 43 36.3 50.5 9.5 3.3 17.2 7.5 13.8 19-3.3 11.1-13.5 14.6-25.6 10.6-38.4-12.7-59.3-45.8-54-89.1 4.8-38.4 1.9-76.6-9.9-113.9-0.4-2-0.7-4.2-1.6-8.8zM627.6 257.9c-30.3 8.1-58.7 20.4-82.6 41.8-20.1 18.1-30.7 60-17.8 79.4 10.5-19.5 20.7-39.6 32-59.1 3-5.1 8.9-11.7 13.7-11.9 7.5-0.3 18.2 2.1 21.8 7.4 3.1 4.5 0.6 16.1-3.4 21.9-26.9 40.2-44 83.6-46.6 132.1-0.5 9.8-6.6 12.3-13.8 12.4-8 0.2-15.2-2.5-14.8-12.9 0-0.9-0.1-1.9 0-2.8 4.6-25.6-2.9-47.2-16.3-69.8-23.3-39.2-7.7-89.6 20.7-117.8 29-28.9 64.9-44.2 103.8-53.7 15.7-3.8 31.3-7.9 48.9-12.3-2.5 12.8-3.2 23.7-6.8 33.6-10.9 29.6-8 59.5-4 89.5 5.2 39-17.5 78.2-54.2 90.6-9.1 3-19 4.6-24.4-8.3-4.2-10.1-2.8-15.8 7.4-19.9 14.5-5.8 27.5-14 34.6-28.7 2.6-5.3 5.3-11.3 5.2-16.9-0.6-31.4-2.2-62.8-3.4-94.6z" fill="#45AE35" p-id="3815"></path></svg>